<svg width="47" height="25" viewBox="0 0 47 25" fill="none" xmlns="http://www.w3.org/2000/svg">
<path fill-rule="evenodd" clip-rule="evenodd" d="M28.8197 5.06915C29.4859 4.80314 30.1935 4.71109 30.8062 4.85463C31.7125 5.06571 32.3275 5.72553 32.5387 6.71062C32.8143 7.99705 32.2078 9.47173 30.8307 10.864C29.7458 11.9607 28.2901 12.873 26.7531 13.4364C26.1165 14.3876 25.301 15.154 24.2666 15.6199C24.4173 16.2034 24.9465 18.2051 26.2259 19.2394H19.9775C21.2566 18.2049 21.7859 16.2034 21.9368 15.6199C20.9024 15.154 20.0871 14.3878 19.4502 13.4367C17.9131 12.8732 16.4575 11.9608 15.3726 10.8642C13.9957 9.47197 13.389 7.99713 13.6646 6.71078C13.8755 5.72553 14.4909 5.06572 15.3972 4.85463C16.0101 4.7111 16.7175 4.80314 17.3837 5.06915C17.3778 4.68772 17.3797 3.70185 17.3899 3.34473H28.8135C28.8237 3.70199 28.8254 4.68785 28.8197 5.06915ZM14.9593 7.02231C14.7961 7.78401 15.2933 8.83976 16.2892 9.84717C16.8956 10.4605 17.6394 11.0052 18.4491 11.4513C17.8864 9.95717 17.5856 8.27328 17.4575 6.66085C16.8932 6.29123 16.2081 6.10463 15.683 6.22742C15.2852 6.3204 15.0552 6.57266 14.9593 7.02231ZM27.7542 11.4515C28.564 11.0053 29.3077 10.4602 29.9141 9.84717C30.91 8.84008 31.4072 7.78433 31.244 7.02251C31.1483 6.57288 30.9181 6.3206 30.5202 6.22762C29.995 6.105 29.3101 6.2916 28.7458 6.66105C28.6178 8.27344 28.3172 9.95749 27.7542 11.4515ZM27.3088 20.019H18.8935V21.7535H27.3088V20.019Z" fill="black"/>
<path fill-rule="evenodd" clip-rule="evenodd" d="M28.8197 5.06915C29.4859 4.80314 30.1935 4.71109 30.8062 4.85463C31.7125 5.06571 32.3275 5.72553 32.5387 6.71062C32.8143 7.99705 32.2078 9.47173 30.8307 10.864C29.7458 11.9607 28.2901 12.873 26.7531 13.4364C26.1165 14.3876 25.301 15.154 24.2666 15.6199C24.4173 16.2034 24.9465 18.2051 26.2259 19.2394H19.9775C21.2566 18.2049 21.7859 16.2034 21.9368 15.6199C20.9024 15.154 20.0871 14.3878 19.4502 13.4367C17.9131 12.8732 16.4575 11.9608 15.3726 10.8642C13.9957 9.47197 13.389 7.99713 13.6646 6.71078C13.8755 5.72553 14.4909 5.06572 15.3972 4.85463C16.0101 4.7111 16.7175 4.80314 17.3837 5.06915C17.3778 4.68772 17.3797 3.70185 17.3899 3.34473H28.8135C28.8237 3.70199 28.8254 4.68785 28.8197 5.06915ZM14.9593 7.02231C14.7961 7.78401 15.2933 8.83976 16.2892 9.84717C16.8956 10.4605 17.6394 11.0052 18.4491 11.4513C17.8864 9.95717 17.5856 8.27328 17.4575 6.66085C16.8932 6.29123 16.2081 6.10463 15.683 6.22742C15.2852 6.3204 15.0552 6.57266 14.9593 7.02231ZM27.7542 11.4515C28.564 11.0053 29.3077 10.4602 29.9141 9.84717C30.91 8.84008 31.4072 7.78433 31.244 7.02251C31.1483 6.57288 30.9181 6.3206 30.5202 6.22762C29.995 6.105 29.3101 6.2916 28.7458 6.66105C28.6178 8.27344 28.3172 9.95749 27.7542 11.4515ZM27.3088 20.019H18.8935V21.7535H27.3088V20.019Z" fill="#3300FF"/>
<path d="M11.8701 18.4594C11.8701 18.4594 12.9954 17.5375 13.0496 16.3283C13.1038 15.1191 12.0664 14.0805 12.0664 14.0805C12.0664 14.0805 10.9412 15.0023 10.887 16.2115C10.8327 17.4207 11.8701 18.4594 11.8701 18.4594Z" fill="#3300FF"/>
<path d="M11.8701 18.4594C11.8701 18.4594 12.9954 17.5375 13.0496 16.3283C13.1038 15.1191 12.0664 14.0805 12.0664 14.0805C12.0664 14.0805 10.9412 15.0023 10.887 16.2115C10.8327 17.4207 11.8701 18.4594 11.8701 18.4594Z" fill="#3300FF"/>
<path d="M11.316 18.8929C11.316 18.8929 10.0755 19.649 8.93077 19.2902C7.78608 18.9313 7.1707 17.5934 7.1707 17.5934C7.1707 17.5934 8.41123 16.8372 9.55592 17.1961C10.7006 17.555 11.316 18.8929 11.316 18.8929Z" fill="#3300FF"/>
<path d="M11.316 18.8929C11.316 18.8929 10.0755 19.649 8.93077 19.2902C7.78608 18.9313 7.1707 17.5934 7.1707 17.5934C7.1707 17.5934 8.41123 16.8372 9.55592 17.1961C10.7006 17.555 11.316 18.8929 11.316 18.8929Z" fill="#3300FF"/>
<path d="M9.46362 14.9033C9.46362 14.9033 8.95211 13.5219 9.50503 12.4527C10.0579 11.3836 11.4659 11.0315 11.4659 11.0315C11.4659 11.0315 11.9774 12.4129 11.4245 13.4821C10.8716 14.5512 9.46362 14.9033 9.46362 14.9033Z" fill="#3300FF"/>
<path d="M9.46362 14.9033C9.46362 14.9033 8.95211 13.5219 9.50503 12.4527C10.0579 11.3836 11.4659 11.0315 11.4659 11.0315C11.4659 11.0315 11.9774 12.4129 11.4245 13.4821C10.8716 14.5512 9.46362 14.9033 9.46362 14.9033Z" fill="#3300FF"/>
<path d="M7.15731 7.21375C7.15731 7.21375 8.65767 5.98464 8.72996 4.37238C8.83386 2.05534 7.45183 0.645219 7.45183 0.645219C7.45183 0.645219 5.45255 1.84411 5.34739 4.18945C5.24223 6.5348 7.15731 7.21375 7.15731 7.21375Z" fill="#3300FF"/>
<path d="M7.15731 7.21375C7.15731 7.21375 8.65767 5.98464 8.72996 4.37238C8.83386 2.05534 7.45183 0.645219 7.45183 0.645219C7.45183 0.645219 5.45255 1.84411 5.34739 4.18945C5.24223 6.5348 7.15731 7.21375 7.15731 7.21375Z" fill="#3300FF"/>
<path d="M7.45669 11.0648C7.45669 11.0648 5.27509 11.6194 3.73118 10.5666C2.18726 9.51386 1.86569 7.25231 1.86569 7.25231C1.86569 7.25231 4.04729 6.69766 5.5912 7.75044C7.13512 8.80322 7.45669 11.0648 7.45669 11.0648Z" fill="#3300FF"/>
<path d="M7.45669 11.0648C7.45669 11.0648 5.27509 11.6194 3.73118 10.5666C2.18726 9.51386 1.86569 7.25231 1.86569 7.25231C1.86569 7.25231 4.04729 6.69766 5.5912 7.75044C7.13512 8.80322 7.45669 11.0648 7.45669 11.0648Z" fill="#3300FF"/>
<path d="M8.07243 10.858C8.07243 10.858 7.3912 9.01585 8.12903 7.59062C8.86686 6.16538 10.7444 5.69679 10.7444 5.69679C10.7444 5.69679 11.4256 7.53896 10.6878 8.96419C9.94992 10.3894 8.07243 10.858 8.07243 10.858Z" fill="#3300FF"/>
<path d="M8.07243 10.858C8.07243 10.858 7.3912 9.01585 8.12903 7.59062C8.86686 6.16538 10.7444 5.69679 10.7444 5.69679C10.7444 5.69679 11.4256 7.53896 10.6878 8.96419C9.94992 10.3894 8.07243 10.858 8.07243 10.858Z" fill="#3300FF"/>
<path d="M9.05718 15.1328C9.05718 15.1328 7.31079 15.968 5.83807 15.3381C4.36534 14.7082 3.72398 12.8517 3.72398 12.8517C3.72398 12.8517 5.47036 12.0165 6.94309 12.6464C8.41581 13.2763 9.05718 15.1328 9.05718 15.1328Z" fill="#3300FF"/>
<path d="M9.05718 15.1328C9.05718 15.1328 7.31079 15.968 5.83807 15.3381C4.36534 14.7082 3.72398 12.8517 3.72398 12.8517C3.72398 12.8517 5.47036 12.0165 6.94309 12.6464C8.41581 13.2763 9.05718 15.1328 9.05718 15.1328Z" fill="#3300FF"/>
<path fill-rule="evenodd" clip-rule="evenodd" d="M6.91257 3.47265C7.11082 3.45384 7.46223 7.40645 7.48237 7.60739C7.83049 11.0796 9.58272 16.8908 14.4051 21.119C14.5518 21.2476 14.5786 21.4695 14.4623 21.625C14.3385 21.7904 14.1017 21.8165 13.9454 21.6797C8.93415 17.2934 7.12462 11.268 6.76445 7.6755C6.7443 7.47456 6.71432 3.49145 6.91257 3.47265Z" fill="#3300FF"/>
<path fill-rule="evenodd" clip-rule="evenodd" d="M6.91257 3.47265C7.11082 3.45384 7.46223 7.40645 7.48237 7.60739C7.83049 11.0796 9.58272 16.8908 14.4051 21.119C14.5518 21.2476 14.5786 21.4695 14.4623 21.625C14.3385 21.7904 14.1017 21.8165 13.9454 21.6797C8.93415 17.2934 7.12462 11.268 6.76445 7.6755C6.7443 7.47456 6.71432 3.49145 6.91257 3.47265Z" fill="#3300FF"/>
<path d="M34.1768 18.4594C34.1768 18.4594 33.0515 17.5375 32.9973 16.3283C32.9431 15.1191 33.9804 14.0805 33.9804 14.0805C33.9804 14.0805 35.1057 15.0023 35.1599 16.2115C35.2141 17.4207 34.1768 18.4594 34.1768 18.4594Z" fill="#3300FF"/>
<path d="M34.1768 18.4594C34.1768 18.4594 33.0515 17.5375 32.9973 16.3283C32.9431 15.1191 33.9804 14.0805 33.9804 14.0805C33.9804 14.0805 35.1057 15.0023 35.1599 16.2115C35.2141 17.4207 34.1768 18.4594 34.1768 18.4594Z" fill="#3300FF"/>
<path d="M34.7309 18.8929C34.7309 18.8929 35.9714 19.649 37.1161 19.2902C38.2608 18.9313 38.8762 17.5934 38.8762 17.5934C38.8762 17.5934 37.6356 16.8372 36.491 17.1961C35.3463 17.555 34.7309 18.8929 34.7309 18.8929Z" fill="#3300FF"/>
<path d="M34.7309 18.8929C34.7309 18.8929 35.9714 19.649 37.1161 19.2902C38.2608 18.9313 38.8762 17.5934 38.8762 17.5934C38.8762 17.5934 37.6356 16.8372 36.491 17.1961C35.3463 17.555 34.7309 18.8929 34.7309 18.8929Z" fill="#3300FF"/>
<path d="M36.5833 14.9033C36.5833 14.9033 37.0948 13.5219 36.5418 12.4527C35.9889 11.3836 34.581 11.0315 34.581 11.0315C34.581 11.0315 34.0695 12.4129 34.6224 13.4821C35.1753 14.5512 36.5833 14.9033 36.5833 14.9033Z" fill="#3300FF"/>
<path d="M36.5833 14.9033C36.5833 14.9033 37.0948 13.5219 36.5418 12.4527C35.9889 11.3836 34.581 11.0315 34.581 11.0315C34.581 11.0315 34.0695 12.4129 34.6224 13.4821C35.1753 14.5512 36.5833 14.9033 36.5833 14.9033Z" fill="#3300FF"/>
<path d="M38.8896 7.21375C38.8896 7.21375 37.3892 5.98464 37.3169 4.37238C37.213 2.05534 38.595 0.64522 38.595 0.64522C38.595 0.64522 40.5943 1.84411 40.6995 4.18945C40.8046 6.5348 38.8896 7.21375 38.8896 7.21375Z" fill="#3300FF"/>
<path d="M38.8896 7.21375C38.8896 7.21375 37.3892 5.98464 37.3169 4.37238C37.213 2.05534 38.595 0.64522 38.595 0.64522C38.595 0.64522 40.5943 1.84411 40.6995 4.18945C40.8046 6.5348 38.8896 7.21375 38.8896 7.21375Z" fill="#3300FF"/>
<path d="M38.5902 11.0648C38.5902 11.0648 40.7718 11.6194 42.3157 10.5666C43.8596 9.51386 44.1812 7.25231 44.1812 7.25231C44.1812 7.25231 41.9996 6.69766 40.4557 7.75044C38.9118 8.80322 38.5902 11.0648 38.5902 11.0648Z" fill="#3300FF"/>
<path d="M38.5902 11.0648C38.5902 11.0648 40.7718 11.6194 42.3157 10.5666C43.8596 9.51386 44.1812 7.25231 44.1812 7.25231C44.1812 7.25231 41.9996 6.69766 40.4557 7.75044C38.9118 8.80322 38.5902 11.0648 38.5902 11.0648Z" fill="#3300FF"/>
<path d="M37.9744 10.858C37.9744 10.858 38.6557 9.01585 37.9178 7.59062C37.18 6.16538 35.3025 5.69679 35.3025 5.69679C35.3025 5.69679 34.6213 7.53896 35.3591 8.96419C36.097 10.3894 37.9744 10.858 37.9744 10.858Z" fill="#3300FF"/>
<path d="M37.9744 10.858C37.9744 10.858 38.6557 9.01585 37.9178 7.59062C37.18 6.16538 35.3025 5.69679 35.3025 5.69679C35.3025 5.69679 34.6213 7.53896 35.3591 8.96419C36.097 10.3894 37.9744 10.858 37.9744 10.858Z" fill="#3300FF"/>
<path d="M36.9897 15.1328C36.9897 15.1328 38.7361 15.968 40.2088 15.3381C41.6815 14.7082 42.3229 12.8517 42.3229 12.8517C42.3229 12.8517 40.5765 12.0165 39.1038 12.6464C37.6311 13.2763 36.9897 15.1328 36.9897 15.1328Z" fill="#3300FF"/>
<path d="M36.9897 15.1328C36.9897 15.1328 38.7361 15.968 40.2088 15.3381C41.6815 14.7082 42.3229 12.8517 42.3229 12.8517C42.3229 12.8517 40.5765 12.0165 39.1038 12.6464C37.6311 13.2763 36.9897 15.1328 36.9897 15.1328Z" fill="#3300FF"/>
<path fill-rule="evenodd" clip-rule="evenodd" d="M39.1343 3.47265C38.9361 3.45384 38.5846 7.40645 38.5645 7.60739C38.2164 11.0796 36.4642 16.8908 31.6417 21.119C31.495 21.2476 31.4683 21.4695 31.5846 21.625C31.7084 21.7904 31.9452 21.8165 32.1015 21.6797C37.1127 17.2934 38.9223 11.268 39.2824 7.67551C39.3026 7.47456 39.3326 3.49145 39.1343 3.47265Z" fill="#3300FF"/>
<path fill-rule="evenodd" clip-rule="evenodd" d="M39.1343 3.47265C38.9361 3.45384 38.5846 7.40645 38.5645 7.60739C38.2164 11.0796 36.4642 16.8908 31.6417 21.119C31.495 21.2476 31.4683 21.4695 31.5846 21.625C31.7084 21.7904 31.9452 21.8165 32.1015 21.6797C37.1127 17.2934 38.9223 11.268 39.2824 7.67551C39.3026 7.47456 39.3326 3.49145 39.1343 3.47265Z" fill="#3300FF"/>
</svg>
